<svg id="visual" viewBox="0 0 900 675" width="900" height="675" xmlns="http://www.w3.org/2000/svg" xmlns:xlink="http://www.w3.org/1999/xlink" version="1.1"><rect width="900" height="675" fill="#5ccafe"></rect><g><g transform="translate(516 517)"><path d="M25.2 -25C34.7 -15.6 46.1 -7.8 47.5 1.4C48.9 10.6 40.4 21.3 30.9 31.5C21.3 41.7 10.6 51.5 -1.8 53.3C-14.3 55.1 -28.5 48.9 -34.3 38.7C-40 28.5 -37.3 14.3 -35.5 1.9C-33.6 -10.5 -32.6 -21.1 -26.9 -30.5C-21.1 -39.9 -10.5 -48.2 -1.4 -46.9C7.8 -45.5 15.6 -34.4 25.2 -25Z" stroke="#46baf3" fill="none" stroke-width="16"></path></g><g transform="translate(830 359)"><path d="M23.2 -23.8C28.8 -17.7 31 -8.8 32.8 1.8C34.6 12.4 35.8 24.7 30.3 31.1C24.7 37.5 12.4 38 -0.4 38.5C-13.2 38.9 -26.4 39.3 -34.6 32.9C-42.8 26.4 -45.9 13.2 -43.2 2.7C-40.5 -7.8 -32 -15.6 -23.8 -21.7C-15.6 -27.8 -7.8 -32.3 0.5 -32.8C8.8 -33.3 17.7 -29.9 23.2 -23.8Z" stroke="#46baf3" fill="none" stroke-width="16"></path></g><g transform="translate(93 587)"><path d="M19.7 -17.8C26.6 -12.8 34.1 -6.4 34.4 0.3C34.8 7.1 28 14.1 21 21C14.1 27.9 7.1 34.7 -0.3 35C-7.7 35.3 -15.4 29.2 -24.2 22.3C-33 15.4 -42.9 7.7 -43.6 -0.7C-44.3 -9 -35.7 -18.1 -26.9 -23.1C-18.1 -28.1 -9 -29.1 -1.3 -27.8C6.4 -26.5 12.8 -22.8 19.7 -17.8Z" stroke="#46baf3" fill="none" stroke-width="16"></path></g><g transform="translate(512 141)"><path d="M25.6 -25.7C34.6 -16.7 44.1 -8.3 44.6 0.5C45 9.3 36.4 18.5 27.5 28.2C18.5 37.9 9.3 48 -2.1 50C-13.4 52.1 -26.9 46.2 -33.4 36.5C-40 26.9 -39.7 13.4 -39.8 -0.1C-39.9 -13.6 -40.4 -27.2 -33.8 -36.2C-27.2 -45.3 -13.6 -49.7 -2.6 -47.1C8.3 -44.5 16.7 -34.7 25.6 -25.7Z" stroke="#46baf3" fill="none" stroke-width="16"></path></g><g transform="translate(267 159)"><path d="M24.7 -23.6C31.5 -18 36 -9 37.3 1.3C38.6 11.7 36.8 23.3 30.1 30.3C23.3 37.3 11.7 39.6 1 38.6C-9.7 37.6 -19.3 33.3 -24.9 26.3C-30.4 19.3 -31.8 9.7 -33.4 -1.6C-34.9 -12.8 -36.6 -25.5 -31.1 -31.1C-25.5 -36.7 -12.8 -35 -1.9 -33.1C9 -31.2 18 -29.1 24.7 -23.6Z" stroke="#46baf3" fill="none" stroke-width="16"></path></g><g transform="translate(245 342)"><path d="M33.1 -33.8C39.4 -26.9 38.5 -13.4 35.5 -3C32.5 7.5 27.4 14.9 21.2 24.3C14.9 33.7 7.5 45.1 -0.3 45.4C-8.1 45.8 -16.3 35.1 -22.1 25.7C-27.9 16.3 -31.4 8.1 -34.2 -2.8C-37 -13.7 -39.1 -27.5 -33.3 -34.4C-27.5 -41.3 -13.7 -41.3 -0.1 -41.2C13.4 -41 26.9 -40.7 33.1 -33.8Z" stroke="#46baf3" fill="none" stroke-width="16"></path></g><g transform="translate(331 582)"><path d="M27.3 -29.4C32.1 -22.5 30.6 -11.2 30.2 -0.4C29.8 10.5 30.6 21 25.8 29.4C21 37.8 10.5 44.1 -0.7 44.8C-11.9 45.6 -23.8 40.7 -31.6 32.2C-39.3 23.8 -42.9 11.9 -40.1 2.7C-37.4 -6.5 -28.4 -12.9 -20.7 -19.8C-12.9 -26.7 -6.5 -34.1 2.4 -36.5C11.2 -38.9 22.5 -36.3 27.3 -29.4Z" stroke="#46baf3" fill="none" stroke-width="16"></path></g><g transform="translate(798 146)"><path d="M23.9 -24.3C29.4 -18.3 31.4 -9.1 29.6 -1.8C27.8 5.5 22.1 10.9 16.5 14.3C10.9 17.7 5.5 19.1 -0.6 19.7C-6.7 20.2 -13.3 20.1 -16.6 16.7C-19.8 13.3 -19.7 6.7 -20.2 -0.5C-20.8 -7.8 -22 -15.5 -18.8 -21.5C-15.5 -27.5 -7.8 -31.7 0.7 -32.4C9.1 -33 18.3 -30.2 23.9 -24.3Z" stroke="#46baf3" fill="none" stroke-width="16"></path></g><g transform="translate(168 468)"><path d="M26.5 -30.5C31.7 -21.2 31.6 -10.6 33 1.5C34.5 13.6 37.7 27.2 32.4 32.4C27.2 37.7 13.6 34.6 2.5 32.1C-8.6 29.6 -17.2 27.7 -26.2 22.4C-35.2 17.2 -44.6 8.6 -45.1 -0.5C-45.6 -9.6 -37.2 -19.2 -28.2 -28.5C-19.2 -37.8 -9.6 -46.8 0.5 -47.3C10.6 -47.8 21.2 -39.8 26.5 -30.5Z" stroke="#46baf3" fill="none" stroke-width="16"></path></g><g transform="translate(396 295)"><path d="M33.2 -31.2C40.7 -25.7 42.8 -12.9 40.1 -2.7C37.4 7.5 29.9 14.9 22.4 23.5C14.9 32 7.5 41.6 -0.4 42C-8.2 42.4 -16.4 33.5 -25.7 24.9C-35 16.4 -45.4 8.2 -46.9 -1.5C-48.3 -11.1 -40.8 -22.2 -31.5 -27.7C-22.2 -33.2 -11.1 -33.1 0.9 -33.9C12.9 -34.8 25.7 -36.7 33.2 -31.2Z" stroke="#46baf3" fill="none" stroke-width="16"></path></g><g transform="translate(696 413)"><path d="M23.8 -24.7C29.3 -18.3 31.2 -9.1 31.7 0.6C32.3 10.3 31.6 20.6 26.1 25.7C20.6 30.8 10.3 30.7 -1.2 31.9C-12.6 33 -25.3 35.5 -33.7 30.4C-42 25.3 -46.1 12.6 -43.8 2.4C-41.4 -7.9 -32.6 -15.8 -24.2 -22.2C-15.8 -28.5 -7.9 -33.3 0.6 -34C9.1 -34.6 18.3 -31 23.8 -24.7Z" stroke="#46baf3" fill="none" stroke-width="16"></path></g><g transform="translate(677 584)"><path d="M24.5 -21.7C32.6 -16.5 40.4 -8.2 40 -0.4C39.6 7.4 30.9 14.8 22.8 20.7C14.8 26.6 7.4 30.9 0.3 30.7C-6.9 30.4 -13.7 25.5 -18.3 19.6C-22.9 13.7 -25.2 6.9 -26.7 -1.5C-28.3 -9.9 -29 -19.8 -24.4 -25.1C-19.8 -30.3 -9.9 -30.9 -0.8 -30.1C8.2 -29.2 16.5 -27 24.5 -21.7Z" stroke="#46baf3" fill="none" stroke-width="16"></path></g><g transform="translate(123 216)"><path d="M19.9 -20.2C24.4 -15.5 25.6 -7.7 25 -0.6C24.4 6.5 21.9 13 17.4 17.4C13 21.7 6.5 24 0.1 23.9C-6.3 23.8 -12.7 21.4 -19.2 17C-25.7 12.7 -32.4 6.3 -33.8 -1.4C-35.1 -9.1 -31.1 -18.1 -24.6 -22.8C-18.1 -27.5 -9.1 -27.9 -0.7 -27.2C7.7 -26.5 15.5 -24.9 19.9 -20.2Z" stroke="#46baf3" fill="none" stroke-width="16"></path></g><g transform="translate(617 269)"><path d="M15.9 -17C20.8 -11 25.2 -5.5 26.8 1.6C28.5 8.7 27.3 17.4 22.3 21.3C17.4 25.2 8.7 24.2 -0.1 24.3C-8.9 24.4 -17.7 25.5 -21.1 21.6C-24.6 17.7 -22.5 8.9 -21.3 1.3C-20 -6.4 -19.5 -12.7 -16.1 -18.8C-12.7 -24.8 -6.4 -30.6 -0.4 -30.2C5.5 -29.7 11 -23.1 15.9 -17Z" stroke="#46baf3" fill="none" stroke-width="16"></path></g><g transform="translate(657 87)"><path d="M15.5 -15C19.7 -11.2 22.6 -5.6 24.3 1.7C26 9 26.5 18 22.3 21.8C18 25.7 9 24.3 2 22.3C-5.1 20.4 -10.2 17.8 -13.9 14C-17.6 10.2 -19.9 5.1 -21.6 -1.7C-23.3 -8.5 -24.4 -17 -20.7 -20.8C-17 -24.6 -8.5 -23.6 -1.4 -22.2C5.6 -20.7 11.2 -18.8 15.5 -15Z" stroke="#46baf3" fill="none" stroke-width="16"></path></g><g transform="translate(153 69)"><path d="M29.4 -30.5C34.2 -24.5 31.7 -12.2 31.9 0.2C32.2 12.7 35.2 25.4 30.3 32.8C25.4 40.2 12.7 42.3 0.5 41.8C-11.7 41.2 -23.3 38.1 -30.5 30.7C-37.6 23.3 -40.2 11.7 -39.7 0.5C-39.2 -10.6 -35.5 -21.2 -28.4 -27.2C-21.2 -33.2 -10.6 -34.6 0.8 -35.4C12.2 -36.2 24.5 -36.5 29.4 -30.5Z" stroke="#46baf3" fill="none" stroke-width="16"></path></g></g></svg>