<svg id="visual" viewBox="0 0 900 80" width="900" height="80" xmlns="http://www.w3.org/2000/svg" xmlns:xlink="http://www.w3.org/1999/xlink" version="1.1"><path d="M0 48L21.5 48.2C43 48.3 86 48.7 128.8 42.3C171.7 36 214.3 23 257.2 22.5C300 22 343 34 385.8 35.3C428.7 36.7 471.3 27.3 514.2 31.3C557 35.3 600 52.7 642.8 55C685.7 57.3 728.3 44.7 771.2 42.3C814 40 857 48 878.5 52L900 56L900 81L878.5 81C857 81 814 81 771.2 81C728.3 81 685.7 81 642.8 81C600 81 557 81 514.2 81C471.3 81 428.7 81 385.8 81C343 81 300 81 257.2 81C214.3 81 171.7 81 128.8 81C86 81 43 81 21.5 81L0 81Z" fill="#5ccafe" stroke-linecap="round" stroke-linejoin="miter"></path></svg>