<svg id="visual" viewBox="0 0 900 200" width="900" height="200" xmlns="http://www.w3.org/2000/svg" xmlns:xlink="http://www.w3.org/1999/xlink" version="1.1"><rect x="0" y="0" width="900" height="200" fill="#5ccafe00"></rect><path d="M0 31L21.5 32.7C43 34.3 86 37.7 128.8 43.8C171.7 50 214.3 59 257.2 58C300 57 343 46 385.8 46C428.7 46 471.3 57 514.2 56.8C557 56.7 600 45.3 642.8 41.8C685.7 38.3 728.3 42.7 771.2 46C814 49.3 857 51.7 878.5 52.8L900 54L900 201L878.5 201C857 201 814 201 771.2 201C728.3 201 685.7 201 642.8 201C600 201 557 201 514.2 201C471.3 201 428.7 201 385.8 201C343 201 300 201 257.2 201C214.3 201 171.7 201 128.8 201C86 201 43 201 21.5 201L0 201Z" fill="#fa7268"></path><path d="M0 86L21.5 91.3C43 96.7 86 107.3 128.8 108.7C171.7 110 214.3 102 257.2 98.5C300 95 343 96 385.8 97.5C428.7 99 471.3 101 514.2 100.2C557 99.3 600 95.7 642.8 97.5C685.7 99.3 728.3 106.7 771.2 111C814 115.3 857 116.7 878.5 117.3L900 118L900 201L878.5 201C857 201 814 201 771.2 201C728.3 201 685.7 201 642.8 201C600 201 557 201 514.2 201C471.3 201 428.7 201 385.8 201C343 201 300 201 257.2 201C214.3 201 171.7 201 128.8 201C86 201 43 201 21.5 201L0 201Z" fill="#f35851"></path><path d="M0 137L21.5 142.2C43 147.3 86 157.7 128.8 158.2C171.7 158.7 214.3 149.3 257.2 143C300 136.7 343 133.3 385.8 137C428.7 140.7 471.3 151.3 514.2 154.5C557 157.7 600 153.3 642.8 151.3C685.7 149.3 728.3 149.7 771.2 152.2C814 154.7 857 159.3 878.5 161.7L900 164L900 201L878.5 201C857 201 814 201 771.2 201C728.3 201 685.7 201 642.8 201C600 201 557 201 514.2 201C471.3 201 428.7 201 385.8 201C343 201 300 201 257.2 201C214.3 201 171.7 201 128.8 201C86 201 43 201 21.5 201L0 201Z" fill="#ea3a3a"></path></svg>